<COLLADA xmlns="http://www.collada.org/2005/11/COLLADASchema" version="1.4.1">
  <asset>
    <contributor/>
    <created>2025-02-11T06:57:21.891932</created>
    <modified>2025-02-11T06:57:21.891936</modified>
    <unit name="meter" meter="1.0"/>
    <up_axis>Z_UP</up_axis>
  </asset>
  <library_effects>
    <effect id="effect_Krytn_Tray_shape001" name="effect_Krytn_Tray_shape001">
      <profile_COMMON>
        <technique sid="common">
          <phong>
            <emission>
              <color>0.0 0.0 0.0 1.0</color>
            </emission>
            <ambient>
              <color>0.0 0.0 0.0 1.0</color>
            </ambient>
            <diffuse>
              <color>0.800000011920929 0.800000011920929 0.9019610285758972 1.0</color>
            </diffuse>
            <specular>
              <color>1 1 1 1.0</color>
            </specular>
            <shininess>
              <float>0.0</float>
            </shininess>
            <reflective>
              <color>0.0 0.0 0.0 1.0</color>
            </reflective>
            <reflectivity>
              <float>0.0</float>
            </reflectivity>
            <transparent>
              <color>0.0 0.0 0.0 1.0</color>
            </transparent>
            <transparency>
              <float>1.0</float>
            </transparency>
          </phong>
        </technique>
        <extra>
          <technique profile="GOOGLEEARTH">
            <double_sided>0</double_sided>
          </technique>
        </extra>
      </profile_COMMON>
    </effect>
  </library_effects>
  <library_geometries>
    <geometry id="geometry0" name="Krytn_Tray_shape001">
      <mesh>
        <source id="cubeverts-array0">
          <float_array count="429" id="cubeverts-array0-array">-0.1524902 -0.3361326 0.3024493 -0.1524902 -0.35 0.09684678 -0.1524902 -0.35 0.3213 -0.1524902 -0.3361326 0.1084059 -0.1524902 0 0.3213 -0.1524902 -0.01465763 0.3024493 -0.1524902 -0.01465763 0.1084059 -0.1524902 0 0.09684678 0.1240941 0 0.3213 0.1240941 -0.35 0.3213 -0.1322219 -2.5e-17 0.3126077 -0.1322219 1e-17 0.1055315 0.1240941 0 0.09684678 0.1052641 1e-17 0.1055315 0.0314112 -2.5e-17 0.3126077 0.1052641 4e-18 0.2474439 0.09735966 4.642e-17 0.249918 0.09034702 4.642e-17 0.2524446 0.08533249 4.642e-17 0.2545378 0.08234529 4.642e-17 0.25594 0.07899721 4.642e-17 0.2576808 0.07572807 4.642e-17 0.2595657 0.0714678 4.642e-17 0.2622397 0.06675352 4.642e-17 0.2653564 0.06262156 4.642e-17 0.268321 0.05971801 4.642e-17 0.2706264 0.05739631 4.642e-17 0.2726647 0.05559807 4.642e-17 0.2744047 0.05405463 4.642e-17 0.2760448 0.05273502 4.642e-17 0.2775839 0.05160915 4.642e-17 0.2790199 0.05053925 4.642e-17 0.2804979 0.04897036 4.642e-17 0.2828548 0.0471736 4.642e-17 0.2857728 0.04094513 4.642e-17 0.2965319 -0.1322219 -0.35 0.3126077 -0.1322219 -0.35 0.1055315 0.1240941 -0.35 0.09684678 0.1052641 -0.35 0.1055315 0.0314112 -0.35 0.3126077 0.1052641 -0.35 0.2474439 0.04497076 -0.35 0.2895329 0.04910252 -0.35 0.2826484 0.05090126 -0.35 0.2799854 0.05195755 -0.35 0.2785626 0.05328949 -0.35 0.2769198 0.05458764 -0.35 0.2754608 0.05624404 -0.35 0.2737607 0.05784832 -0.35 0.2722513 0.05951361 -0.35 0.270798 0.06123323 -0.35 0.2693948 0.06359909 -0.35 0.2675916 0.06634231 -0.35 0.2656391 0.07096151 -0.35 0.2625663 0.07590518 -0.35 0.2594591 0.07952274 -0.35 0.2573948 0.0825826 -0.35 0.2558237 0.08685979 -0.35 0.2538688 0.09151439 -0.35 0.2519958 0.09698314 -0.35 0.2500444 0.1009154 -0.35 0.2487654 -0.1338503 -0.3024117 0.09684678 -0.1179213 -0.3183406 0.09684678 0.07032979 -0.3212368 0.09684678 -0.05710172 -0.2575211 0.09684678 0.01964677 -0.2691058 0.09684678 -0.07447882 -0.240144 0.09684678 0.03557567 -0.2517288 0.09684678 0.0877068 -0.3038598 0.09684678 -0.08027113 -0.09388741 0.09684678 -0.1309541 -0.0388602 0.09684678 -0.113577 -0.02148315 0.09684678 -0.05999794 -0.07506232 0.09684678 0.02109488 -0.08085465 0.09684678 0.04281612 -0.09678358 0.09684678 0.06164122 -0.02148315 0.09684678 0.08481064 -0.035964 0.09684678 -0.1322219 -0.3361326 0.3024493 -0.1322219 -0.01465763 0.3024493 -0.1322219 -0.3361326 0.1084059 -0.1322219 -0.01465763 0.1084059 0.1240941 -0.3361326 0.1084059 0.1240941 -0.3361326 0.3024493 0.1240941 -0.01465763 0.1084059 0.1240941 -0.01465763 0.3024493 0.03749902 -0.01465763 0.3024493 0.04360759 -0.01465763 0.2919014 0.04735434 -0.01465763 0.2854714 0.04988454 -0.01465763 0.2814557 0.05105703 -0.01465763 0.2797688 0.05229565 -0.01465763 0.27813 0.05360833 -0.01465763 0.2765496 0.05514915 -0.01465763 0.2748662 0.05695017 -0.01465763 0.2730815 0.05904454 -0.01465763 0.2711971 0.06166262 -0.01465763 0.2690576 0.06539235 -0.01465763 0.2663013 0.07351523 -0.01465763 0.2609332 0.07644937 -0.01465763 0.2591346 0.07944334 -0.01465763 0.2574377 0.08284687 -0.01465763 0.2556952 0.0858425 -0.01465763 0.254311 0.09093482 -0.01465763 0.252217 0.09805172 -0.01465763 0.2496879 0.1052641 -0.01465763 0.2474439 0.03749902 -0.3361326 0.3024493 0.04360759 -0.3361326 0.2919014 0.04735434 -0.3361326 0.2854714 0.04988454 -0.3361326 0.2814557 0.05105703 -0.3361326 0.2797688 0.05229565 -0.3361326 0.27813 0.05360833 -0.3361326 0.2765496 0.05514915 -0.3361326 0.2748662 0.05695017 -0.3361326 0.2730815 0.05904454 -0.3361326 0.2711971 0.06166262 -0.3361326 0.2690576 0.06539235 -0.3361326 0.2663013 0.07351523 -0.3361326 0.2609332 0.07644937 -0.3361326 0.2591346 0.07944334 -0.3361326 0.2574377 0.08284687 -0.3361326 0.2556952 0.0858425 -0.3361326 0.254311 0.09093482 -0.3361326 0.252217 0.09805172 -0.3361326 0.2496879 0.1052641 -0.3361326 0.2474439 0.1052641 -0.01465763 0.1084059 0.1052641 -0.3361326 0.1084059 -0.1338503 -0.3024117 -0.003153221 -0.1179213 -0.3183406 -0.003153221 -0.05710172 -0.2575211 -0.003153221 -0.07447882 -0.240144 -0.003153221 0.07032979 -0.3212368 -0.003153221 0.0877068 -0.3038598 -0.003153221 0.03557567 -0.2517288 -0.003153221 0.01964677 -0.2691058 -0.003153221 -0.08027113 -0.09388741 -0.003153221 -0.1309541 -0.0388602 -0.003153221 -0.05999794 -0.07506232 -0.003153221 -0.113577 -0.02148315 -0.003153221 0.02109488 -0.08085465 -0.003153221 0.04281612 -0.09678358 -0.003153221 0.08481064 -0.035964 -0.003153221 0.06164122 -0.02148315 -0.003153221</float_array>
          <technique_common>
            <accessor count="143" source="#cubeverts-array0-array" stride="3">
              <param type="float" name="X"/>
              <param type="float" name="Y"/>
              <param type="float" name="Z"/>
            </accessor>
          </technique_common>
        </source>
        <source id="cubenormals-array0">
          <float_array count="882" id="cubenormals-array0-array">-1 -0 0 -1 0 -0 -1 -0 0 -1 0 0 -1 0 -0 -1 0 0 -1 0 -0 -1 0 -0 0 0 1 0 0 1 1.233455e-15 1 0 -5.65805e-16 1 1.690199e-16 0 1 -1.15145e-15 0 1 -1.15145e-15 0 1 -2.876112e-15 5.505668e-16 1 4.227959e-17 4.98572e-15 1 -1.216978e-15 2.064443e-16 1 5.72985e-16 2.33614e-16 1 5.596687e-16 2.56486e-16 1 5.463889e-16 2.77202e-16 1 5.331577e-16 2.986506e-16 1 5.179525e-16 3.163816e-16 1 5.040623e-16 3.269887e-16 1 4.946096e-16 3.430605e-16 1 4.78137e-16 3.620978e-16 1 4.560477e-16 3.801901e-16 1 4.330639e-16 3.968871e-16 1 4.101641e-16 4.121555e-16 1 3.878644e-16 4.264967e-16 1 3.65669e-16 4.394404e-16 1 3.445409e-16 4.502805e-16 1 3.259543e-16 4.609064e-16 1 3.068005e-16 4.698551e-16 1 2.893148e-16 4.761642e-16 1 2.756543e-16 -6.502296e-16 1 4.05706e-15 0 1 -2.876112e-15 2.124267e-16 1 0 0 -1 0 -0 -1 0 0 -1 0 0 -1 0 0 -1 0 0 -1 0 0 -1 0 0 -1 0 0 -1 0 0 -1 0 0 -1 0 0 -1 0 0 -1 0 0 -1 0 0 -1 0 0 -1 0 0 -1 0 0 -1 0 0 -1 0 0 -1 0 0 -1 0 0 -1 0 0 -1 0 0 -1 0 0 -1 0 0 -1 0 0 -1 0 -0 -1 0 0 -1 0 0 -0 -1 0 -0 -1 0 -0 -1 0 0 -1 0 -0 -1 0 0 -1 0 0 -1 0 0 -1 0 0 -1 0 0 -1 0 0 -1 0 0 -1 0 0 -1 0 -0 -1 0 0 -1 0 0 -1 0 0 -1 0 -0 -1 0 0 -1 0 0 -1 0 0 -1 0 0 -1 0 0 -1 0 0 -1 0 0 -1 0 0 -1 0 0 -1 0 0 -1 0 1 0 0 1 -0 -0 0 1 0 0 1 0 -1 0 0 -1 -0 1 0 -0 1 0 0 1 0 0 1 0 0 1 0 -0 1 0 0 1 0 -0 1 0 -0 1 -0 0 1 0 0 1 0 0 1 0 0 1 0 0 1 0 0 1 0 0 1 -0 0 0 0 -1 0 0 -1 -0.8601099 -0.003714817 -0.5100955 -0.8654414 0.00107134 -0.501009 -0.8653596 0.001130789 -0.5011501 -0.851518 0.0002835072 -0.5243252 -0.8640184 -0.0002997477 -0.5034602 -0.8460612 -0.00188139 -0.5330825 -0.8324422 0.0009753578 -0.5541112 -0.8211282 -0.0006167866 -0.5707435 -0.8100371 0.0005527107 -0.5863783 -0.797774 -0.0007562311 -0.6029562 -0.7869565 0.0006035491 -0.6170081 -0.7692459 -0.000744846 -0.6389524 -0.7591673 0.000698372 -0.6508952 -0.737663 -0.0007924092 -0.6751686 -0.7282423 0.0007272848 -0.6853195 -0.7038674 -0.0008067247 -0.7103309 -0.6953775 0.0007268953 -0.7186444 -0.6688782 -0.0007829326 -0.7433717 -0.6597414 0.001057551 -0.751492 -0.6218208 0.001327255 -0.7831584 -0.6327761 -0.001070663 -0.7743341 -0.5943253 -0.001530065 -0.8042233 -0.5514823 -0.002563335 -0.8341827 -0.5829625 0.001758012 -0.8124971 -0.5513434 -0.002646281 -0.8342742 -0.5316199 0.001241544 -0.8469821 -0.4995106 0.0008976627 -0.8663073 -0.5225994 -0.0006423256 -0.8525781 -0.4613004 0.0006709503 -0.8872437 -0.4930885 -0.0005828571 -0.869979 -0.4249315 0.0005790198 -0.9052253 -0.4557243 -0.000726996 -0.8901207 -0.3852033 0.0008716589 -0.9228314 -0.4194472 -0.0005526807 -0.9077796 -0.3389661 0.001013333 -0.940798 -0.3803055 -0.0008918975 -0.9248604 -0.2987095 0.0008781305 -0.9543437 -0.3348575 -0.001018172 -0.9422683 -0.2970829 0 -0.9548516 -0.862137 0.007360999 -0.5066218 -0.864018 0.001054664 -0.5034599 -0.86536 0.0005282831 -0.5011504 -0.8460613 0.001859566 -0.5330825 -0.8574294 -0.00333784 -0.5145908 -0.8286724 -0.001413249 -0.5597321 -0.8211282 0.0003072964 -0.5707436 -0.7977741 0.0006413492 -0.6029562 -0.8029331 -0.0002927388 -0.5960691 -0.7767631 -0.0007080499 -0.6297925 -0.7692459 0.0006300503 -0.6389525 -0.7376629 0.0009161247 -0.6751686 -0.7470783 -0.0005678871 -0.6647359 -0.7162584 -0.0009225304 -0.6978344 -0.7038673 0.001051967 -0.7103307 -0.6852418 -0.0007772529 -0.7283152 -0.6688779 0.001183968 -0.7433713 -0.6575256 -0.0005601533 -0.753432 -0.6327763 0.0008784768 -0.7743343 -0.6322114 0.0007330579 -0.7747955 -0.6061918 -0.0005717175 -0.7953183 -0.5943248 0.002026722 -0.8042225 -0.5798686 -0.000818443 -0.8147097 -0.5538688 0.001817026 -0.832602 -0.5513424 0.003281624 -0.8342727 -0.5321335 -0.001714395 -0.8466588 -0.5225995 0.0005579319 -0.8525782 -0.4956234 -0.0008740986 -0.8685371 -0.4930885 -0.0001313852 -0.8699791 -0.4567691 0.0001372261 -0.8895853 -0.4194472 -0.0004189011 -0.9077796 -0.4557243 0.000436084 -0.8901209 -0.4156849 -0.001491799 -0.9095075 -0.3803051 0.001593139 -0.9248597 -0.373302 -0.0008041988 -0.9277095 -0.3360752 0.0009769348 -0.9418346 -0.3348573 0.00157596 -0.9422675 -0.3093097 -0.0006161865 -0.9509611 -0.2970822 0.002167432 -0.9548495 -0.2907619 0 -0.9567954 -0.8577614 0 -0.5140482 -0.8577613 0 -0.5140482 -1 0 0 -1 0 0 -1 0 0 -1 0 0 -1 0 0 -1 0 0 0 0 1 -0 0 1 -0.7071059 -0.7071076 -0 -0.7071059 -0.7071076 -0 0.7071064 -0.7071072 0 0.7071064 -0.7071072 0 0.7071059 0.7071076 0 0.7071059 0.7071076 0 -0.7237378 0.6900751 0 -0.7237378 0.6900751 0 0.7071068 -0.7071068 0 0.7071068 -0.7071068 0 0.7071062 0.7071074 0 0.7071062 0.7071074 0 -0.7371547 0.675724 0 -0.7371547 0.675724 0 -0.7169945 -0.6970788 -0 -0.7169945 -0.6970788 -0 -0.7355447 -0.6774762 0 -0.7355447 -0.6774762 0 0.6804509 -0.7327936 0 0.6804509 -0.7327936 0 0.7071071 0.7071064 0 0.7071071 0.7071064 0 -0.7071057 0.7071078 0 -0.7071057 0.7071078 0 -0.8258013 0.5639612 0 -0.8258013 0.5639612 0 -0.5913642 -0.8064046 -0 -0.5913642 -0.8064046 0 0.8228966 -0.5681911 0 0.8228966 -0.5681911 0 0.529998 0.8479989 0 0.529998 0.8479989 0 0 -1 0 0 -1 0 0 -1 0 0 -1 0 0 -1 0 0 -1 0 0 -1 0 0 -1 0 0 -1 0 0 -1 0 0 -1 0 0 -1 0 0 -1 0 0 -1 0 0 -1 0 0 -1 0 0 -1 0 0 -1 0 0 -1 0 0 -1 0 0 -1 0 -0 0 1 0 0 1 0 1 0 -0 1 0 -0 1 0 -0 1 0 -0 1 0 -0 1 0 -0 1 0 0 1 -0 0 1 -0 0 1 -0 0 1 -0 0 1 -0 0 1 -0 0 1 -0 0 1 -0 0 1 -0 0 1 -0 0 1 -0 0 1 -0 0 1 -0 0 1 -0 0 0 -1 0 0 -1 0 0 -1 0 -0 -1 0 -0 -1 0 0 -1 0 0 -1 0 0 -1 0 0 -1 0 -0 -1</float_array>
          <technique_common>
            <accessor count="294" source="#cubenormals-array0-array" stride="3">
              <param type="float" name="X"/>
              <param type="float" name="Y"/>
              <param type="float" name="Z"/>
            </accessor>
          </technique_common>
        </source>
        <vertices id="cubeverts-array0-vertices">
          <input semantic="POSITION" source="#cubeverts-array0"/>
        </vertices>
        <triangles count="294" material="ref_Krytn_Tray_shape001">
          <input offset="0" semantic="VERTEX" source="#cubeverts-array0-vertices"/>
          <input offset="1" semantic="NORMAL" source="#cubenormals-array0"/>
          <p>0 0 1 0 2 0 0 1 3 1 1 1 4 2 5 2 2 2 2 3 5 3 0 3 3 4 6 4 1 4 5 5 7 5 6 5 4 6 7 6 5 6 6 7 7 7 1 7 8 8 4 8 9 8 9 9 4 9 2 9 10 10 7 10 4 10 10 11 11 11 7 11 12 12 11 12 13 12 12 13 7 13 11 13 14 14 10 14 4 14 15 15 12 15 13 15 8 16 15 16 16 16 8 17 16 17 17 17 8 18 17 18 18 18 8 19 18 19 19 19 8 20 19 20 20 20 8 21 20 21 21 21 8 22 21 22 22 22 8 23 22 23 23 23 8 24 23 24 24 24 8 25 24 25 25 25 8 26 25 26 26 26 8 27 26 27 27 27 8 28 27 28 28 28 8 29 28 29 29 29 8 30 29 30 30 30 8 31 30 31 31 31 8 32 31 32 32 32 8 33 32 33 33 33 8 34 33 34 34 34 8 35 34 35 14 35 4 36 8 36 14 36 8 37 12 37 15 37 1 38 35 38 2 38 36 39 35 39 1 39 36 40 37 40 38 40 1 41 37 41 36 41 35 42 39 42 2 42 37 43 40 43 38 43 41 44 9 44 39 44 42 45 9 45 41 45 43 46 9 46 42 46 44 47 9 47 43 47 45 48 9 48 44 48 46 49 9 49 45 49 47 50 9 50 46 50 48 51 9 51 47 51 49 52 9 52 48 52 50 53 9 53 49 53 51 54 9 54 50 54 52 55 9 55 51 55 53 56 9 56 52 56 54 57 9 57 53 57 55 58 9 58 54 58 56 59 9 59 55 59 57 60 9 60 56 60 58 61 9 61 57 61 59 62 9 62 58 62 60 63 9 63 59 63 40 64 9 64 60 64 9 65 2 65 39 65 37 66 9 66 40 66 61 67 62 67 1 67 62 68 63 68 1 68 64 69 65 69 62 69 62 70 65 70 63 70 63 71 37 71 1 71 66 72 67 72 64 72 64 73 67 73 65 73 63 74 68 74 37 74 61 75 69 75 66 75 61 76 70 76 69 76 1 77 7 77 61 77 61 78 7 78 70 78 7 79 71 79 70 79 72 80 73 80 69 80 67 81 74 81 68 81 69 82 74 82 66 82 66 83 74 83 67 83 73 84 74 84 69 84 71 85 75 85 72 85 72 86 75 86 73 86 74 87 76 87 68 87 75 88 12 88 76 88 68 89 12 89 37 89 76 90 12 90 68 90 7 91 12 91 71 91 71 92 12 92 75 92 0 93 5 93 77 93 77 94 5 94 78 94 3 95 0 95 79 95 79 96 0 96 77 96 6 97 3 97 80 97 80 98 3 98 79 98 5 99 6 99 78 99 78 100 6 100 80 100 81 101 82 101 37 101 82 102 9 102 37 102 37 103 83 103 81 103 37 104 12 104 83 104 82 105 84 105 9 105 12 106 84 106 83 106 84 107 8 107 9 107 12 108 8 108 84 108 78 109 11 109 10 109 78 110 80 110 11 110 78 111 35 111 77 111 10 112 35 112 78 112 77 113 36 113 79 113 35 114 36 114 77 114 36 115 11 115 79 115 79 116 11 116 80 116 39 117 35 117 10 117 39 118 10 118 14 118 85 119 14 119 34 119 86 120 34 120 33 120 86 121 85 121 34 121 87 122 33 122 32 122 87 123 86 123 33 123 88 124 87 124 32 124 88 125 32 125 31 125 89 126 88 126 31 126 89 127 31 127 30 127 90 128 89 128 30 128 90 129 30 129 29 129 91 130 90 130 29 130 91 131 29 131 28 131 92 132 91 132 28 132 92 133 28 133 27 133 93 134 92 134 27 134 93 135 27 135 26 135 94 136 93 136 26 136 94 137 26 137 25 137 95 138 25 138 24 138 95 139 94 139 25 139 96 140 95 140 24 140 96 141 23 141 22 141 96 142 24 142 23 142 97 143 96 143 22 143 97 144 22 144 21 144 98 145 21 145 20 145 98 146 97 146 21 146 99 147 20 147 19 147 99 148 98 148 20 148 100 149 19 149 18 149 100 150 99 150 19 150 101 151 18 151 17 151 101 152 100 152 18 152 102 153 17 153 16 153 102 154 101 154 17 154 103 155 16 155 15 155 103 156 102 156 16 156 104 157 103 157 15 157 41 158 39 158 105 158 41 159 106 159 107 159 41 160 105 160 106 160 42 161 107 161 108 161 42 162 41 162 107 162 43 163 42 163 108 163 43 164 108 164 109 164 44 165 109 165 110 165 44 166 43 166 109 166 45 167 44 167 110 167 45 168 110 168 111 168 46 169 111 169 112 169 46 170 45 170 111 170 47 171 46 171 112 171 47 172 112 172 113 172 48 173 47 173 113 173 48 174 113 174 114 174 49 175 48 175 114 175 49 176 114 176 115 176 50 177 49 177 115 177 51 178 50 178 115 178 51 179 115 179 116 179 52 180 51 180 116 180 53 181 52 181 116 181 53 182 116 182 117 182 54 183 53 183 117 183 54 184 117 184 118 184 55 185 54 185 118 185 55 186 118 186 119 186 56 187 55 187 119 187 56 188 120 188 121 188 56 189 119 189 120 189 57 190 56 190 121 190 57 191 121 191 122 191 58 192 57 192 122 192 59 193 58 193 122 193 59 194 122 194 123 194 60 195 59 195 123 195 60 196 123 196 124 196 40 197 60 197 124 197 39 198 14 198 85 198 39 199 85 199 105 199 125 200 15 200 13 200 125 201 104 201 15 201 126 202 40 202 124 202 38 203 40 203 126 203 13 204 38 204 126 204 13 205 126 205 125 205 36 206 38 206 11 206 11 207 38 207 13 207 61 208 127 208 128 208 62 209 61 209 128 209 62 210 128 210 129 210 64 211 62 211 129 211 64 212 129 212 130 212 66 213 64 213 130 213 66 214 130 214 127 214 61 215 66 215 127 215 63 216 131 216 132 216 68 217 63 217 132 217 68 218 132 218 133 218 67 219 68 219 133 219 67 220 133 220 134 220 65 221 67 221 134 221 65 222 134 222 131 222 63 223 65 223 131 223 135 224 69 224 136 224 69 225 70 225 136 225 137 226 72 226 135 226 72 227 69 227 135 227 71 228 72 228 138 228 138 229 72 229 137 229 70 230 71 230 136 230 136 231 71 231 138 231 73 232 75 232 139 232 139 233 75 233 142 233 74 234 73 234 140 234 140 235 73 235 139 235 141 236 76 236 140 236 76 237 74 237 140 237 75 238 76 238 142 238 142 239 76 239 141 239 84 240 103 240 104 240 84 241 102 241 103 241 84 242 101 242 102 242 84 243 100 243 101 243 84 244 99 244 100 244 84 245 98 245 99 245 85 246 86 246 84 246 84 247 97 247 98 247 86 248 87 248 84 248 84 249 96 249 97 249 87 250 88 250 84 250 88 251 89 251 84 251 84 252 95 252 96 252 89 253 90 253 84 253 84 254 94 254 95 254 90 255 91 255 84 255 84 256 93 256 94 256 91 257 92 257 84 257 84 258 92 258 93 258 104 259 83 259 84 259 104 260 125 260 83 260 125 261 126 261 83 261 83 262 126 262 81 262 126 263 124 263 81 263 123 264 82 264 124 264 122 265 82 265 123 265 121 266 82 266 122 266 120 267 82 267 121 267 119 268 82 268 120 268 124 269 82 269 81 269 119 270 118 270 82 270 118 271 117 271 82 271 117 272 116 272 82 272 116 273 115 273 82 273 115 274 114 274 82 274 114 275 113 275 82 275 113 276 112 276 82 276 112 277 111 277 82 277 111 278 110 278 82 278 110 279 109 279 82 279 109 280 108 280 82 280 108 281 107 281 82 281 107 282 106 282 82 282 106 283 105 283 82 283 105 284 84 284 82 284 105 285 85 285 84 285 127 286 129 286 128 286 130 287 129 287 127 287 133 288 132 288 134 288 134 289 132 289 131 289 136 290 137 290 135 290 136 291 138 291 137 291 139 292 142 292 140 292 142 293 141 293 140 293</p>
        </triangles>
      </mesh>
    </geometry>
  </library_geometries>
  <library_materials>
    <material id="mat_Krytn_Tray_shape001" name="Krytn_Tray_shape001">
      <instance_effect url="#effect_Krytn_Tray_shape001"/>
    </material>
  </library_materials>
  <library_visual_scenes>
    <visual_scene id="myscene">
      <node id="node0" name="node0">
        <instance_geometry url="#geometry0">
          <bind_material>
            <technique_common>
              <instance_material symbol="ref_Krytn_Tray_shape001" target="#mat_Krytn_Tray_shape001"/>
            </technique_common>
          </bind_material>
        </instance_geometry>
      </node>
    </visual_scene>
  </library_visual_scenes>
  <scene>
    <instance_visual_scene url="#myscene"/>
  </scene>
</COLLADA>
