<COLLADA xmlns="http://www.collada.org/2005/11/COLLADASchema" version="1.4.1">
  <asset>
    <contributor/>
    <created>2025-02-19T09:07:52.516615</created>
    <modified>2025-02-19T09:07:52.516619</modified>
    <unit name="meter" meter="1.0"/>
    <up_axis>Z_UP</up_axis>
  </asset>
  <library_effects>
    <effect id="effect_base_link_body_shape003" name="effect_base_link_body_shape003">
      <profile_COMMON>
        <technique sid="common">
          <phong>
            <emission>
              <color>0.0 0.0 0.0 1.0</color>
            </emission>
            <ambient>
              <color>0.0 0.0 0.0 1.0</color>
            </ambient>
            <diffuse>
              <color>0.800000011920929 0.800000011920929 0.9019610285758972 1.0</color>
            </diffuse>
            <specular>
              <color>1 1 1 1.0</color>
            </specular>
            <shininess>
              <float>0.0</float>
            </shininess>
            <reflective>
              <color>0.0 0.0 0.0 1.0</color>
            </reflective>
            <reflectivity>
              <float>0.0</float>
            </reflectivity>
            <transparent>
              <color>0.0 0.0 0.0 1.0</color>
            </transparent>
            <transparency>
              <float>1.0</float>
            </transparency>
          </phong>
        </technique>
        <extra>
          <technique profile="GOOGLEEARTH">
            <double_sided>0</double_sided>
          </technique>
        </extra>
      </profile_COMMON>
    </effect>
  </library_effects>
  <library_geometries>
    <geometry id="geometry0" name="base_link_body_shape003">
      <mesh>
        <source id="cubeverts-array0">
          <float_array count="798" id="cubeverts-array0-array">0.05 0 0.04 0.05 0 0 0.04994308 0.002385084 0.04 0.04993785 0.002492294 0 0.04977245 0.004764739 0.04 0.04975154 0.004978392 0 0.04948851 0.007133544 0.04 0.04944154 0.007452113 0 0.04909189 0.009486109 0.04 0.04900863 0.009907308 0 0.0485835 0.01181708 0.04 0.04845387 0.01233787 0 0.0479645 0.01412114 0.04 0.04777864 0.01473776 0 0.04720864 0.01647254 0.04 0.04698463 0.01710101 0 0.04633758 0.01878374 0.04 0.04607381 0.01942174 0 0.04535345 0.0210491 0.04 0.04504844 0.02169419 0 0.04425865 0.02326311 0.04 0.04391108 0.0239127 0 0.04305585 0.02542034 0.04 0.04266454 0.02607176 0 0.04174799 0.02751555 0.04 0.04131194 0.028166 0 0.04033825 0.02954362 0.04 0.03985662 0.03019022 0 0.03883009 0.03149959 0.04 0.03830222 0.03213938 0 0.03722717 0.0333787 0.04 0.03665259 0.03400864 0 0.03553342 0.03517636 0.04 0.03491184 0.03579334 0 0.03375295 0.03688818 0.04 0.03308429 0.03748906 0 0.03189013 0.03851 0.04 0.03117449 0.03909158 0 0.02994948 0.04003784 0.04 0.02918718 0.0405969 0 0.02793576 0.04146798 0.04 0.02712731 0.0420013 0 0.02585386 0.04279694 0.04 0.025 0.04330127 0 0.02370889 0.04402146 0.04 0.02281053 0.04449359 0 0.02150605 0.04513856 0.04 0.02056436 0.04557529 0 0.01925074 0.04614552 0.04 0.01826705 0.04654369 0 0.01694845 0.04703988 0.04 0.01592433 0.04739637 0 0.01460481 0.04781945 0.04 0.01354202 0.04813121 0 0.01222553 0.04848233 0.04 0.01112605 0.0487464 0 0.009816415 0.04902691 0.04 0.008682409 0.04924039 0 0.007383348 0.04945186 0.04 0.006217185 0.04961196 0 0.004932264 0.04975613 0.04 0.003736505 0.04986019 0 0.002469145 0.049939 0.04 0.001246535 0.04998446 0 4.138441e-16 0.05 0.04 -0.001246535 0.04998446 0 -0.002469145 0.049939 0.04 -0.003736505 0.04986019 0 -0.004932264 0.04975613 0.04 -0.006217185 0.04961196 0 -0.007383348 0.04945186 0.04 -0.008682409 0.04924039 0 -0.009816415 0.04902691 0.04 -0.01112605 0.0487464 0 -0.01222553 0.04848233 0.04 -0.01354202 0.04813121 0 -0.01460481 0.04781945 0.04 -0.01592433 0.04739637 0 -0.01694845 0.04703988 0.04 -0.01826705 0.04654369 0 -0.01925074 0.04614552 0.04 -0.02056436 0.04557529 0 -0.02150605 0.04513856 0.04 -0.02281053 0.04449359 0 -0.02370889 0.04402146 0.04 -0.025 0.04330127 0 -0.02585386 0.04279694 0.04 -0.02712731 0.0420013 0 -0.02793576 0.04146798 0.04 -0.02918718 0.0405969 0 -0.02994948 0.04003784 0.04 -0.03117449 0.03909158 0 -0.03189013 0.03851 0.04 -0.03308429 0.03748906 0 -0.03375295 0.03688818 0.04 -0.03491184 0.03579334 0 -0.03553342 0.03517636 0.04 -0.03665259 0.03400864 0 -0.03722717 0.0333787 0.04 -0.03830222 0.03213938 0 -0.03883009 0.03149959 0.04 -0.03985662 0.03019022 0 -0.04033825 0.02954362 0.04 -0.04131194 0.028166 0 -0.04174799 0.02751555 0.04 -0.04266454 0.02607176 0 -0.04305585 0.02542034 0.04 -0.04391108 0.0239127 0 -0.04425865 0.02326311 0.04 -0.04504844 0.02169419 0 -0.04535345 0.0210491 0.04 -0.04607381 0.01942174 0 -0.04633758 0.01878374 0.04 -0.04698463 0.01710101 0 -0.04720864 0.01647254 0.04 -0.04777864 0.01473776 0 -0.0479645 0.01412114 0.04 -0.04845387 0.01233787 0 -0.04857361 0.01185768 0.04 -0.04900863 0.009907308 0 -0.04907597 0.009568156 0.04 -0.04944154 0.007452113 0 -0.04947047 0.007257607 0.04 -0.04975154 0.004978392 0 -0.04975625 0.004931108 0.04 -0.04993268 0.002593772 0.04 -0.04993785 0.002492294 0 -0.04999937 0.0002507351 0.04 -0.05 -1.715124e-16 0 -0.04995618 -0.002092853 0.04 -0.04993785 -0.002492294 0 -0.0498032 -0.004431841 0.04 -0.04975154 -0.004978392 0 -0.04954077 -0.006761089 0.04 -0.04944154 -0.007452113 0 -0.04916946 -0.009075479 0.04 -0.04900863 -0.009907308 0 -0.04869009 -0.01136992 0.04 -0.04845387 -0.01233787 0 -0.04810371 -0.01363938 0.04 -0.04777864 -0.01473776 0 -0.04741162 -0.01587886 0.04 -0.04698463 -0.01710101 0 -0.04656049 -0.01822418 0.04 -0.04607381 -0.01942174 0 -0.04559342 -0.02052413 0.04 -0.04504844 -0.02169419 0 -0.04451283 -0.02277297 0.04 -0.04391108 -0.0239127 0 -0.0433214 -0.0249651 0.04 -0.04266454 -0.02607176 0 -0.0420221 -0.02709507 0.04 -0.04131194 -0.028166 0 -0.04061817 -0.02915758 0.04 -0.03985662 -0.03019022 0 -0.03911309 -0.03114748 0.04 -0.03830222 -0.03213938 0 -0.03751063 -0.03305983 0.04 -0.03665259 -0.03400864 0 -0.03581477 -0.03488986 0.04 -0.03491184 -0.03579334 0 -0.03402973 -0.03663301 0.04 -0.03308429 -0.03748906 0 -0.03215995 -0.03828495 0.04 -0.03117449 -0.03909158 0 -0.0302101 -0.03984156 0.04 -0.02918718 -0.0405969 0 -0.02818502 -0.04129897 0.04 -0.02712731 -0.0420013 0 -0.02608977 -0.04265354 0.04 -0.025 -0.04330127 0 -0.02392955 -0.0439019 0.04 -0.02281053 -0.04449359 0 -0.02170974 -0.04504095 0.04 -0.02056436 -0.04557529 0 -0.01943588 -0.04606785 0.04 -0.01826705 -0.04654369 0 -0.01711363 -0.04698004 0.04 -0.01592433 -0.04739637 0 -0.01474876 -0.04777525 0.04 -0.01354202 -0.04813121 0 -0.01234717 -0.0484515 0.04 -0.01112605 -0.0487464 0 -0.009914829 -0.0490071 0.04 -0.008682409 -0.04924039 0 -0.007457804 -0.04944068 0.04 -0.006217185 -0.04961196 0 -0.00498221 -0.04975116 0.04 -0.003736505 -0.04986019 0 -0.00249421 -0.04993775 0.04 -0.001246535 -0.04998446 0 7.457668e-16 -0.05 0.04 0.001246535 -0.04998446 0 0.00249421 -0.04993775 0.04 0.003736505 -0.04986019 0 0.00498221 -0.04975116 0.04 0.006217185 -0.04961196 0 0.007457804 -0.04944068 0.04 0.008682409 -0.04924039 0 0.009914829 -0.0490071 0.04 0.01112605 -0.0487464 0 0.01234717 -0.0484515 0.04 0.01354202 -0.04813121 0 0.01474876 -0.04777525 0.04 0.01592433 -0.04739637 0 0.01711363 -0.04698004 0.04 0.01826705 -0.04654369 0 0.01943588 -0.04606785 0.04 0.02056436 -0.04557529 0 0.02170974 -0.04504095 0.04 0.02281053 -0.04449359 0 0.02392955 -0.0439019 0.04 0.025 -0.04330127 0 0.02608977 -0.04265354 0.04 0.02712731 -0.0420013 0 0.02818502 -0.04129897 0.04 0.02918718 -0.0405969 0 0.0302101 -0.03984156 0.04 0.03117449 -0.03909158 0 0.03215995 -0.03828495 0.04 0.03308429 -0.03748906 0 0.03402973 -0.03663301 0.04 0.03491184 -0.03579334 0 0.03581477 -0.03488986 0.04 0.03665259 -0.03400864 0 0.03751063 -0.03305983 0.04 0.03830222 -0.03213938 0 0.03911309 -0.03114748 0.04 0.03985662 -0.03019022 0 0.04061817 -0.02915758 0.04 0.04131194 -0.028166 0 0.0420221 -0.02709507 0.04 0.04266454 -0.02607176 0 0.0433214 -0.0249651 0.04 0.04391108 -0.0239127 0 0.04451283 -0.02277297 0.04 0.04504844 -0.02169419 0 0.04559342 -0.02052413 0.04 0.04607381 -0.01942174 0 0.04656049 -0.01822418 0.04 0.04698463 -0.01710101 0 0.04741162 -0.01587886 0.04 0.04777864 -0.01473776 0 0.04809393 -0.01367384 0.04 0.04845387 -0.01233787 0 0.04867375 -0.01143967 0.04 0.04900863 -0.009907308 0 0.04914984 -0.009181131 0.04 0.04944154 -0.007452113 0 0.04952119 -0.006903023 0.04 0.04975154 -0.004978392 0 0.04978701 -0.004610205 0.04 0.04993785 -0.002492294 0 0.04994672 -0.002307561 0.04 0.05000186 -0.01587886 0.04 0.05000186 0.01412114 0.04 -0.06999814 -0.01587886 0.04 -0.06999814 0.01412114 0.04 -0.06999814 0.01412114 0.06 -0.06999814 -0.01587886 0.06 0.03500186 0.01412114 0.06 0.03500186 -0.01587886 0.06 0.03500186 0.01412114 0.13 0.03500186 -0.01587886 0.13 0.05000186 -0.01587886 0.13 0.05000186 0.01412114 0.13</float_array>
          <technique_common>
            <accessor count="266" source="#cubeverts-array0-array" stride="3">
              <param type="float" name="X"/>
              <param type="float" name="Y"/>
              <param type="float" name="Z"/>
            </accessor>
          </technique_common>
        </source>
        <source id="cubenormals-array0">
          <float_array count="1584" id="cubenormals-array0-array">0.9997154 0.02385781 0 0.9974392 0.07151907 6.11798e-05 0.9996892 0.02493026 -6.398416e-05 0.9928924 0.1190157 0.00011652 0.9972037 0.07473111 -0.0001222734 0.9860846 0.1662436 0.0001660814 0.9922392 0.1243438 -0.0001748456 0.977032 0.2130925 0.0002099899 0.9848079 0.1736473 -0.0002215543 0.9657546 0.259457 0.0002481061 0.9749278 0.2225209 -0.0002625258 0.9520218 0.3060302 0.0002940392 0.9626242 0.2708406 -0.0002976886 0.9357476 0.3526702 0.0003007366 0.9479272 0.3184869 -0.0003045525 0.91719 0.39845 0.0003071848 0.9308737 0.3653409 -0.0003111406 0.8963946 0.4432569 0.0003133513 0.9115058 0.4112872 -0.0003174522 0.8734118 0.4869824 0.0003192534 0.889872 0.4562103 -0.0003235083 0.866025 0.5000004 -0.0003293428 0.8482971 0.5295204 0.0003248292 0.8400261 0.542546 -0.0003348444 0.8211122 0.5707667 0.0003302473 0.8119377 0.583744 -0.0003400191 0.7919254 0.6106178 0.0003353618 0.781832 0.623489 -0.0003449968 0.7608047 0.6489809 0.0003402298 0.7497804 0.6616867 -0.0003497305 0.727828 0.6857596 0.0003447137 0.7158676 0.698236 -0.0003541563 0.6930745 0.7208658 0.0003490879 0.6801726 0.733052 -0.0003582588 0.6566316 0.7542115 0.0003531174 0.6427878 0.7660443 -0.0003621924 0.6185843 0.7857183 0.0003568778 0.6038041 0.7971327 -0.0003657922 0.579029 0.8153069 0.0003603723 0.5633202 0.8262386 -0.0003691465 0.5380608 0.842906 0.0003636006 0.5214347 0.8532912 -0.0003722832 0.4957784 0.868449 0.0003665054 0.4522873 0.8918722 0.0003692443 0.4782545 0.8782212 -0.0003750744 0.4076921 0.9131194 0.0003716877 0.4338841 0.9009687 -0.0003776003 0.3621024 0.9321383 0.0003737625 0.3884336 0.9214767 -0.0003799077 0.3156289 0.9488826 0.0003756477 0.3420202 0.9396926 -0.000381954 0.2683851 0.9633117 0.0003773336 0.2947563 0.9555724 -0.0003836591 0.2204877 0.9753897 0.0003785973 0.2467565 0.9690774 -0.0003851261 0.17205 0.9850882 0.0003796345 0.198146 0.9801724 -0.0003864284 0.1231936 0.9923826 0.0003804895 0.1490429 0.9888306 -0.0003873406 0.07403599 0.9972556 0.0003810632 0.09956803 0.9950307 -0.0003879789 0.02469925 0.9996949 0.0003813035 0.04984521 0.9987568 -0.0003883553 -0.02469925 0.9996949 0.0003813035 0 0.9999998 -0.0003885269 -0.07403599 0.9972556 0.0003810632 -0.04984521 0.9987568 -0.0003883553 -0.1231936 0.9923826 0.0003804891 -0.09956803 0.9950307 -0.0003879789 -0.17205 0.9850882 0.0003796345 -0.1490429 0.9888306 -0.000387341 -0.198146 0.9801724 -0.0003864278 -0.2204877 0.9753897 0.0003785973 -0.2467565 0.9690774 -0.0003851261 -0.2683851 0.9633117 0.0003773336 -0.2947563 0.9555724 -0.0003836591 -0.3156289 0.9488826 0.0003756471 -0.3420202 0.9396926 -0.0003819534 -0.3621024 0.9321383 0.000373762 -0.3884336 0.9214767 -0.0003799077 -0.4076921 0.9131194 0.0003716877 -0.4338841 0.9009687 -0.0003775997 -0.4522873 0.8918722 0.0003692431 -0.4782545 0.8782212 -0.0003750756 -0.4957784 0.868449 0.0003665054 -0.5214347 0.8532912 -0.0003722832 -0.5380608 0.842906 0.0003636006 -0.5633202 0.8262386 -0.0003691453 -0.579029 0.8153069 0.0003603723 -0.6038041 0.7971327 -0.0003657922 -0.6185843 0.7857183 0.0003568778 -0.6427878 0.7660443 -0.0003621912 -0.6566316 0.7542115 0.0003531174 -0.6801726 0.733052 -0.0003582588 -0.6930745 0.7208658 0.0003490879 -0.7158676 0.698236 -0.0003541575 -0.727828 0.6857596 0.0003447149 -0.7497804 0.6616867 -0.0003497305 -0.7608047 0.6489809 0.0003402298 -0.781832 0.623489 -0.0003449968 -0.7919254 0.6106178 0.0003353612 -0.8119377 0.583744 -0.0003400196 -0.8211122 0.5707667 0.0003302473 -0.8400261 0.542546 -0.000334845 -0.8482971 0.5295204 0.0003248298 -0.866025 0.5000004 -0.0003293428 -0.8734118 0.4869824 0.0003192528 -0.889872 0.4562103 -0.0003235077 -0.8963946 0.4432569 0.0003133513 -0.9115058 0.4112872 -0.0003174516 -0.91719 0.39845 0.0003071854 -0.9357476 0.3526702 0.000300736 -0.9308737 0.3653409 -0.00031114 -0.9520218 0.3060302 0.0002940392 -0.9479272 0.3184869 -0.0003045525 -0.9656464 0.2598598 0.0002288231 -0.9626242 0.2708406 -0.0002976892 -0.976764 0.2143176 0.0001727496 -0.9749278 0.2225209 -0.0002472078 -0.9857352 0.1683034 0.000105544 -0.9848079 0.1736473 -0.0001856271 -0.9922392 0.1243438 -0.0001129197 -0.9925398 0.1219213 2.722339e-05 -0.9971632 0.07526913 -2.846879e-05 -0.9972037 0.07473111 -6.072668e-05 -0.9995952 0.02845254 5.698815e-05 -0.9996892 0.02493026 -0.0001405415 -0.9998302 -0.01842588 0.0001312333 -0.9996892 -0.02493026 -0.0002092388 -0.9978679 -0.06526525 0.0001943829 -0.9972037 -0.07473111 -0.00026684 -0.9937127 -0.1119598 0.000246353 -0.9922392 -0.1243437 -0.0003133335 -0.9873736 -0.1584086 0.0002872269 -0.9848079 -0.1736473 -0.0003486745 -0.9788643 -0.2045106 0.0003170488 -0.9749278 -0.2225209 -0.0003728547 -0.9682039 -0.250162 0.0003357315 -0.9626241 -0.2708405 -0.0003859436 -0.9554158 -0.2952633 0.000343273 -0.9479272 -0.3184869 -0.0003879525 -0.9400136 -0.3411366 0.0003885562 -0.9308737 -0.3653409 -0.0003880011 -0.9218259 -0.3876039 0.0003886156 -0.9115057 -0.4112872 -0.0003880302 -0.901343 -0.4331058 0.000388659 -0.8786158 -0.4775292 0.0003887247 -0.8898719 -0.4562103 -0.0003880567 -0.8537011 -0.5207633 0.0003887056 -0.866025 -0.5000004 -0.0003881066 -0.8266597 -0.562702 0.0003887604 -0.8400261 -0.542546 -0.0003881895 -0.7975606 -0.6032387 0.0003887949 -0.8119377 -0.5837439 -0.0003882011 -0.7664756 -0.6422732 0.0003889088 -0.781832 -0.623489 -0.000388194 -0.7334833 -0.6797073 0.0003888236 -0.7497803 -0.6616867 -0.0003882142 -0.6986622 -0.7154516 0.0003888824 -0.7158675 -0.6982359 -0.0003883461 -0.6621027 -0.749413 0.000388907 -0.6801726 -0.733052 -0.0003883328 -0.6238942 -0.7815087 0.0003889699 -0.6427878 -0.7660442 -0.0003883514 -0.5841329 -0.811658 0.0003890002 -0.6038041 -0.7971326 -0.0003883411 -0.5429175 -0.8397859 0.0003890125 -0.5633202 -0.8262386 -0.0003883555 -0.5003487 -0.8658239 0.0003889707 -0.5214346 -0.8532911 -0.0003884439 -0.456535 -0.8897054 0.0003890338 -0.4782545 -0.8782212 -0.0003884546 -0.4338841 -0.9009687 -0.0003884414 -0.4115842 -0.9113716 0.0003890757 -0.3884336 -0.9214766 -0.0003884763 -0.365609 -0.9307684 0.0003890067 -0.3420202 -0.9396925 -0.0003885442 -0.3187222 -0.947848 0.0003890423 -0.2710437 -0.962567 0.0003891493 -0.2947562 -0.9555724 -0.000388467 -0.2467565 -0.9690774 -0.0003884721 -0.2226893 -0.9748894 0.0003890992 -0.1737798 -0.9847845 0.0003891181 -0.198146 -0.9801724 -0.0003885156 -0.1244393 -0.9922271 0.0003891705 -0.1490429 -0.9888306 -0.0003884661 -0.07478832 -0.9971993 0.0003891474 -0.09956803 -0.9950307 -0.0003884693 -0.02494932 -0.9996886 0.0003890987 -0.04984521 -0.9987568 -0.0003885395 0.02494932 -0.9996886 0.0003890987 0 -0.9999998 -0.0003885269 0.07478832 -0.9971993 0.0003891477 0.04984521 -0.9987568 -0.0003885395 0.1244393 -0.9922271 0.0003891705 0.09956803 -0.9950307 -0.0003884693 0.1737798 -0.9847845 0.0003891184 0.1490429 -0.9888306 -0.0003884661 0.2226893 -0.9748894 0.0003890992 0.198146 -0.9801724 -0.000388515 0.2710437 -0.962567 0.0003891493 0.2467565 -0.9690774 -0.0003884721 0.3187222 -0.947848 0.0003890429 0.2947562 -0.9555724 -0.000388467 0.365609 -0.9307684 0.0003890067 0.3420202 -0.9396925 -0.0003885448 0.4115842 -0.9113716 0.0003890757 0.3884336 -0.9214766 -0.0003884775 0.456535 -0.8897054 0.0003890338 0.4338841 -0.9009687 -0.0003884414 0.5003487 -0.8658239 0.0003889707 0.4782545 -0.8782212 -0.0003884546 0.5429175 -0.8397859 0.0003890125 0.5214346 -0.8532911 -0.0003884439 0.5841329 -0.811658 0.0003890002 0.5633202 -0.8262386 -0.0003883543 0.6238942 -0.7815087 0.0003889699 0.6038041 -0.7971326 -0.0003883411 0.6621027 -0.749413 0.0003889082 0.6427878 -0.7660442 -0.0003883502 0.6986622 -0.7154516 0.0003888824 0.6801726 -0.733052 -0.0003883328 0.7158675 -0.6982359 -0.0003883461 0.7334833 -0.6797073 0.0003888236 0.7497803 -0.6616867 -0.0003882142 0.7664756 -0.6422732 0.0003889088 0.781832 -0.623489 -0.0003881952 0.7975606 -0.6032387 0.0003887949 0.8119377 -0.5837439 -0.0003882011 0.8266597 -0.562702 0.0003887592 0.8400261 -0.542546 -0.0003881895 0.8537011 -0.5207633 0.0003887056 0.866025 -0.5000004 -0.0003881066 0.8786158 -0.4775292 0.0003887247 0.8898719 -0.4562103 -0.0003880579 0.901343 -0.4331058 0.000388659 0.9115057 -0.4112872 -0.0003880302 0.9218259 -0.3876039 0.0003886144 0.9308737 -0.3653409 -0.0003880005 0.9400136 -0.3411366 0.0003885556 0.9479272 -0.3184869 -0.0003879525 0.9553102 -0.295605 0.0003325566 0.9626242 -0.2708406 -0.0003837794 0.9679346 -0.2512021 0.0003199122 0.9749278 -0.2225209 -0.000362564 0.9784964 -0.2062638 0.0002901076 0.9869732 -0.1608843 0.0002431667 0.9848079 -0.1736473 -0.0003243094 0.9933466 -0.1151627 0.0001792103 0.9922392 -0.1243437 -0.0002689208 0.997603 -0.06919643 9.818424e-05 0.9972037 -0.07473111 -0.0001963706 0.9997336 -0.02308146 0 0.9996892 -0.02493026 -0.0001067148 0 0 -1 0 0 -1 0 0 -1 0 0 -1 0 0 -1 0 0 -1 0 0 -1 0 0 -1 0 0 -1 0 0 -1 0 0 -1 0 0 -1 0 0 -1 0 0 -1 0 0 -1 0 0 -1 0 0 -1 0 0 -1 0 0 -1 0 0 -1 0 0 -1 0 0 -1 0 0 -1 0 0 -1 0 0 -1 0 0 -1 0 0 -1 0 0 -1 0 0 -1 0 0 -1 0 0 -1 0 0 -1 0 -0 -1 0 -0 -1 0 -0 -1 0 -0 -1 0 0 -1 0 0 -1 0 -0 -1 0 0 -1 0 0 -1 0 0 -1 0 0 -1 0 0 -1 0 -0 -1 0 -0 -1 0 -0 -1 0 -0 -1 0 0 -1 0 0 -1 0 -0 -1 0 -0 -1 0 0 -1 0 0 -1 0 -0 -1 0 0 -1 0 0 -1 0 0 -1 0 -0 -1 0 -0 -1 0 0 -1 0 0 -1 0 -0 -1 0 -0 -1 0 0 -1 0 0 -1 0 0 -1 0 0 -1 0 0 -1 0 0 -1 0 -0 -1 0 -0 -1 0 -0 -1 0 -0 -1 0 0 -1 0 0 -1 0 -0 -1 0 -0 -1 0 -0 -1 0 -0 -1 0 -0 -1 0 0 -1 0 0 -1 0 0 -1 0 0 -1 0 0 -1 0 -0 -1 0 -0 -1 0 -0 -1 0 0 -1 0 0 -1 0 0 -1 0 0 -1 -0 -0 -1 -0 -0 -1 -0 -0 -1 0 0 -1 0 0 -1 0 0 -1 0 0 -1 -0 -0 -1 -0 -0 -1 -0 -0 -1 -0 -0 -1 0 -0 -1 0 0 -1 0 0 -1 0 0 -1 -0 -0 -1 0 0 -1 -0 -0 -1 -0 -0 -1 0 0 -1 0 0 -1 0 0 -1 0 0 -1 0 -0 -1 -0 -0 -1 0 -0 -1 0 0 -1 0 0 -1 -0 -0 -1 0 0 -1 0 0 -1 0 0 -1 0 0 -1 0 0 -1 0 0 -1 0 0 -1 0 0 -1 0 0 -1 0 0 -1 0 -0 -1 0 0 -1 0 0 -1 0 -0 -1 0 -0 -1 0 -0 -1 0 0 1 0 0 1 0 0 1 0 0 1 0 0 1 0 0 1 0 0 1 0 0 1 0 0 1 0 0 1 0 0 1 0 0 1 0 0 1 0 0 1 0 0 1 0 0 1 0 0 1 0 0 1 0 0 1 0 0 1 0 0 1 0 0 1 0 0 1 0 0 1 0 0 1 0 0 1 0 0 1 0 0 1 0 0 1 0 0 1 0 0 1 0 0 1 0 0 1 0 0 1 0 0 1 0 0 1 0 0 1 0 0 1 0 0 1 0 0 1 0 0 1 0 0 1 0 0 1 0 0 1 0 0 1 0 0 1 0 0 1 0 0 1 0 0 1 0 0 -1 0 0 -1 0 0 -1 0 0 -1 0 0 -1 0 0 -1 0 0 -1 0 0 -1 0 0 -1 0 0 -1 0 0 -1 0 0 -1 0 0 -1 0 0 -1 0 0 1 0 0 1 0 0 1 0 0 1 0 0 1 0 0 1 0 0 1 0 0 1 0 0 1 0 0 1 0 0 1 0 0 1 0 0 1 0 0 1 0 0 1 0 0 1 0 0 1 0 0 1 0 0 1 0 0 1 0 0 1 0 0 1 0 0 1 0 0 1 0 0 1 0 0 1 0 0 1 0 0 1 0 0 1 0 0 1 0 0 1 0 0 1 0 0 1 0 0 1 0 0 1 0 0 1 0 0 1 0 0 1 0 0 1 0 0 1 0 0 1 0 0 1 0 0 1 0 0 1 0 0 1 0 0 1 0 0 1 0 0 1 0 0 1 0 0 1 0 0 1 -1 0 0 -1 -0 0 0 0 1 0 0 1 -1 0 0 -1 -0 0 0 0 1 0 0 1 0 1 0 0 1 0 0 1 0 0 1 0 0 1 0 -0 1 0 1 0 0 1 -0 0 0 -1 0 0 -1 0 0 -1 0 0 -1 0 0 -1 0 -0 -1 0</float_array>
          <technique_common>
            <accessor count="528" source="#cubenormals-array0-array" stride="3">
              <param type="float" name="X"/>
              <param type="float" name="Y"/>
              <param type="float" name="Z"/>
            </accessor>
          </technique_common>
        </source>
        <vertices id="cubeverts-array0-vertices">
          <input semantic="POSITION" source="#cubeverts-array0"/>
        </vertices>
        <triangles count="528" material="ref_base_link_body_shape003">
          <input offset="0" semantic="VERTEX" source="#cubeverts-array0-vertices"/>
          <input offset="1" semantic="NORMAL" source="#cubenormals-array0"/>
          <p>0 0 1 0 2 0 2 1 3 1 4 1 1 2 3 2 2 2 4 3 5 3 6 3 3 4 5 4 4 4 6 5 7 5 8 5 5 6 7 6 6 6 8 7 9 7 10 7 7 8 9 8 8 8 10 9 11 9 12 9 9 10 11 10 10 10 12 11 13 11 14 11 11 12 13 12 12 12 14 13 15 13 16 13 13 14 15 14 14 14 16 15 17 15 18 15 15 16 17 16 16 16 18 17 19 17 20 17 17 18 19 18 18 18 20 19 21 19 22 19 19 20 21 20 20 20 21 21 23 21 22 21 22 22 23 22 24 22 23 23 25 23 24 23 24 24 25 24 26 24 25 25 27 25 26 25 26 26 27 26 28 26 27 27 29 27 28 27 28 28 29 28 30 28 29 29 31 29 30 29 30 30 31 30 32 30 31 31 33 31 32 31 32 32 33 32 34 32 33 33 35 33 34 33 34 34 35 34 36 34 35 35 37 35 36 35 36 36 37 36 38 36 37 37 39 37 38 37 38 38 39 38 40 38 39 39 41 39 40 39 40 40 41 40 42 40 41 41 43 41 42 41 42 42 43 42 44 42 44 43 45 43 46 43 43 44 45 44 44 44 46 45 47 45 48 45 45 46 47 46 46 46 48 47 49 47 50 47 47 48 49 48 48 48 50 49 51 49 52 49 49 50 51 50 50 50 52 51 53 51 54 51 51 52 53 52 52 52 54 53 55 53 56 53 53 54 55 54 54 54 56 55 57 55 58 55 55 56 57 56 56 56 58 57 59 57 60 57 57 58 59 58 58 58 60 59 61 59 62 59 59 60 61 60 60 60 62 61 63 61 64 61 61 62 63 62 62 62 64 63 65 63 66 63 63 64 65 64 64 64 66 65 67 65 68 65 65 66 67 66 66 66 68 67 69 67 70 67 67 68 69 68 68 68 70 69 71 69 72 69 69 70 71 70 70 70 71 71 73 71 72 71 72 72 73 72 74 72 73 73 75 73 74 73 74 74 75 74 76 74 75 75 77 75 76 75 76 76 77 76 78 76 77 77 79 77 78 77 78 78 79 78 80 78 79 79 81 79 80 79 80 80 81 80 82 80 81 81 83 81 82 81 82 82 83 82 84 82 83 83 85 83 84 83 84 84 85 84 86 84 85 85 87 85 86 85 86 86 87 86 88 86 87 87 89 87 88 87 88 88 89 88 90 88 89 89 91 89 90 89 90 90 91 90 92 90 91 91 93 91 92 91 92 92 93 92 94 92 93 93 95 93 94 93 94 94 95 94 96 94 95 95 97 95 96 95 96 96 97 96 98 96 97 97 99 97 98 97 98 98 99 98 100 98 99 99 101 99 100 99 100 100 101 100 102 100 101 101 103 101 102 101 102 102 103 102 104 102 103 103 105 103 104 103 104 104 105 104 106 104 105 105 107 105 106 105 106 106 107 106 108 106 107 107 109 107 108 107 108 108 109 108 110 108 109 109 111 109 110 109 110 110 111 110 112 110 112 111 113 111 114 111 111 112 113 112 112 112 114 113 115 113 116 113 113 114 115 114 114 114 116 115 117 115 118 115 115 116 117 116 116 116 118 117 119 117 120 117 117 118 119 118 118 118 120 119 121 119 122 119 119 120 121 120 120 120 121 121 123 121 122 121 122 122 123 122 124 122 124 123 123 123 125 123 123 124 126 124 125 124 125 125 126 125 127 125 126 126 128 126 127 126 127 127 128 127 129 127 128 128 130 128 129 128 129 129 130 129 131 129 130 130 132 130 131 130 131 131 132 131 133 131 132 132 134 132 133 132 133 133 134 133 135 133 134 134 136 134 135 134 135 135 136 135 137 135 136 136 138 136 137 136 137 137 138 137 139 137 138 138 140 138 139 138 139 139 140 139 141 139 140 140 142 140 141 140 141 141 142 141 143 141 142 142 144 142 143 142 143 143 144 143 145 143 144 144 146 144 145 144 145 145 146 145 147 145 147 146 148 146 149 146 146 147 148 147 147 147 149 148 150 148 151 148 148 149 150 149 149 149 151 150 152 150 153 150 150 151 152 151 151 151 153 152 154 152 155 152 152 153 154 153 153 153 155 154 156 154 157 154 154 155 156 155 155 155 157 156 158 156 159 156 156 157 158 157 157 157 159 158 160 158 161 158 158 159 160 159 159 159 161 160 162 160 163 160 160 161 162 161 161 161 163 162 164 162 165 162 162 163 164 163 163 163 165 164 166 164 167 164 164 165 166 165 165 165 167 166 168 166 169 166 166 167 168 167 167 167 169 168 170 168 171 168 168 169 170 169 169 169 171 170 172 170 173 170 170 171 172 171 171 171 172 172 174 172 173 172 173 173 174 173 175 173 174 174 176 174 175 174 175 175 176 175 177 175 176 176 178 176 177 176 177 177 178 177 179 177 179 178 180 178 181 178 178 179 180 179 179 179 180 180 182 180 181 180 181 181 182 181 183 181 183 182 184 182 185 182 182 183 184 183 183 183 185 184 186 184 187 184 184 185 186 185 185 185 187 186 188 186 189 186 186 187 188 187 187 187 189 188 190 188 191 188 188 189 190 189 189 189 191 190 192 190 193 190 190 191 192 191 191 191 193 192 194 192 195 192 192 193 194 193 193 193 195 194 196 194 197 194 194 195 196 195 195 195 197 196 198 196 199 196 196 197 198 197 197 197 199 198 200 198 201 198 198 199 200 199 199 199 201 200 202 200 203 200 200 201 202 201 201 201 203 202 204 202 205 202 202 203 204 203 203 203 205 204 206 204 207 204 204 205 206 205 205 205 207 206 208 206 209 206 206 207 208 207 207 207 209 208 210 208 211 208 208 209 210 209 209 209 211 210 212 210 213 210 210 211 212 211 211 211 213 212 214 212 215 212 212 213 214 213 213 213 215 214 216 214 217 214 214 215 216 215 215 215 217 216 218 216 219 216 216 217 218 217 217 217 219 218 220 218 221 218 218 219 220 219 219 219 221 220 222 220 223 220 220 221 222 221 221 221 222 222 224 222 223 222 223 223 224 223 225 223 224 224 226 224 225 224 225 225 226 225 227 225 226 226 228 226 227 226 227 227 228 227 229 227 228 228 230 228 229 228 229 229 230 229 231 229 230 230 232 230 231 230 231 231 232 231 233 231 232 232 234 232 233 232 233 233 234 233 235 233 234 234 236 234 235 234 235 235 236 235 237 235 236 236 238 236 237 236 237 237 238 237 239 237 238 238 240 238 239 238 239 239 240 239 241 239 240 240 242 240 241 240 241 241 242 241 243 241 242 242 244 242 243 242 243 243 244 243 245 243 244 244 246 244 245 244 245 245 246 245 247 245 247 246 248 246 249 246 246 247 248 247 247 247 249 248 250 248 251 248 248 249 250 249 249 249 251 250 252 250 253 250 250 251 252 251 251 251 253 252 1 252 0 252 252 253 1 253 253 253 160 254 164 254 162 254 154 255 152 255 156 255 164 256 168 256 166 256 164 257 170 257 168 257 160 258 170 258 164 258 158 259 170 259 160 259 152 260 148 260 156 260 150 261 148 261 152 261 158 262 174 262 170 262 156 263 174 263 158 263 170 264 174 264 172 264 146 265 144 265 148 265 174 266 178 266 176 266 174 267 180 267 178 267 148 268 138 268 156 268 144 269 138 269 148 269 140 270 138 270 142 270 142 271 138 271 144 271 156 272 182 272 174 272 174 273 182 273 180 273 132 274 130 274 134 274 134 275 130 275 136 275 138 276 128 276 156 276 136 277 128 277 138 277 130 278 128 278 136 278 184 279 192 279 186 279 186 280 192 280 188 280 188 281 192 281 190 281 128 282 126 282 156 282 184 283 198 283 192 283 192 284 198 284 194 284 194 285 198 285 196 285 121 286 119 286 123 286 123 287 119 287 126 287 119 288 115 288 126 288 117 289 115 289 119 289 198 290 204 290 200 290 200 291 204 291 202 291 115 292 113 292 126 292 204 293 208 293 206 293 184 294 208 294 198 294 198 295 208 295 204 295 184 296 210 296 208 296 182 297 210 297 184 297 113 298 105 298 126 298 107 299 105 299 109 299 109 300 105 300 111 300 111 301 105 301 113 301 210 302 216 302 212 302 212 303 216 303 214 303 105 304 101 304 126 304 103 305 101 305 105 305 126 306 101 306 156 306 216 307 220 307 218 307 99 308 97 308 101 308 210 309 222 309 216 309 216 310 222 310 220 310 101 311 93 311 156 311 95 312 93 312 97 312 97 313 93 313 101 313 222 314 226 314 224 314 210 315 226 315 222 315 93 316 89 316 156 316 91 317 89 317 93 317 226 318 234 318 228 318 228 319 234 319 230 319 230 320 234 320 232 320 182 321 234 321 210 321 210 322 234 322 226 322 156 323 234 323 182 323 83 324 81 324 85 324 85 325 81 325 87 325 79 326 77 326 81 326 81 327 77 327 87 327 236 328 242 328 238 328 238 329 242 329 240 329 73 330 71 330 75 330 75 331 71 331 77 331 71 332 69 332 77 332 87 333 69 333 89 333 77 334 69 334 87 334 234 335 250 335 236 335 242 336 250 336 244 336 244 337 250 337 246 337 246 338 250 338 248 338 236 339 250 339 242 339 67 340 65 340 69 340 69 341 63 341 89 341 65 342 63 342 69 342 234 343 3 343 250 343 250 344 3 344 252 344 252 345 3 345 1 345 3 346 7 346 5 346 59 347 57 347 61 347 55 348 53 348 57 348 57 349 53 349 61 349 7 350 13 350 9 350 9 351 13 351 11 351 234 352 13 352 3 352 3 353 13 353 7 353 49 354 47 354 51 354 51 355 47 355 53 355 61 356 47 356 63 356 53 357 47 357 61 357 63 358 47 358 89 358 13 359 19 359 15 359 15 360 19 360 17 360 13 361 21 361 19 361 45 362 43 362 47 362 13 363 23 363 21 363 43 364 41 364 47 364 41 365 39 365 47 365 23 366 27 366 25 366 234 367 27 367 13 367 13 368 27 368 23 368 156 369 27 369 234 369 47 370 37 370 89 370 39 371 37 371 47 371 89 372 37 372 156 372 156 373 37 373 27 373 27 374 31 374 29 374 35 375 33 375 37 375 37 376 33 376 27 376 27 377 33 377 31 377 241 378 243 378 254 378 243 379 245 379 254 379 245 380 247 380 254 380 247 381 249 381 254 381 6 382 255 382 4 382 8 383 255 383 6 383 10 384 255 384 8 384 12 385 255 385 10 385 255 386 254 386 0 386 255 387 0 387 2 387 255 388 2 388 4 388 0 389 254 389 253 389 253 390 254 390 251 390 251 391 254 391 249 391 157 392 159 392 161 392 153 393 155 393 157 393 167 394 161 394 163 394 167 395 163 395 165 395 167 396 157 396 161 396 147 397 149 397 151 397 147 398 151 398 153 398 173 399 169 399 171 399 145 400 147 400 153 400 145 401 153 401 157 401 145 402 157 402 167 402 175 403 169 403 173 403 177 404 167 404 169 404 177 405 169 405 175 405 141 406 143 406 145 406 179 407 167 407 177 407 183 408 179 408 181 408 183 409 145 409 167 409 183 410 167 410 179 410 187 411 183 411 185 411 191 412 187 412 189 412 191 413 183 413 187 413 195 414 191 414 193 414 201 415 197 415 199 415 203 416 183 416 191 416 203 417 191 417 195 417 203 418 197 418 201 418 203 419 195 419 197 419 203 420 145 420 183 420 205 421 145 421 203 421 209 422 205 422 207 422 213 423 205 423 209 423 213 424 209 424 211 424 217 425 213 425 215 425 221 426 213 426 217 426 221 427 217 427 219 427 225 428 205 428 213 428 225 429 213 429 221 429 225 430 221 430 223 430 229 431 145 431 205 431 229 432 205 432 225 432 229 433 225 433 227 433 233 434 229 434 231 434 239 435 145 435 229 435 239 436 229 436 233 436 239 437 233 437 235 437 239 438 235 438 237 438 239 439 141 439 145 439 241 440 141 440 239 440 256 441 139 441 141 441 256 442 137 442 139 442 256 443 135 443 137 443 256 444 133 444 135 444 256 445 131 445 133 445 256 446 129 446 131 446 257 447 127 447 256 447 256 448 127 448 129 448 257 449 125 449 127 449 257 450 124 450 125 450 257 451 122 451 124 451 257 452 120 452 122 452 257 453 118 453 120 453 257 454 116 454 118 454 112 455 114 455 116 455 110 456 112 456 116 456 108 457 110 457 116 457 106 458 108 458 116 458 104 459 106 459 116 459 102 460 104 460 116 460 100 461 102 461 116 461 94 462 96 462 98 462 94 463 98 463 100 463 94 464 100 464 116 464 92 465 94 465 116 465 86 466 88 466 90 466 86 467 90 467 92 467 86 468 92 468 116 468 84 469 86 469 116 469 80 470 82 470 84 470 80 471 84 471 116 471 76 472 78 472 80 472 72 473 74 473 76 473 72 474 76 474 80 474 72 475 80 475 116 475 66 476 68 476 70 476 64 477 66 477 70 477 64 478 70 478 72 478 60 479 72 479 116 479 60 480 64 480 72 480 60 481 62 481 64 481 58 482 60 482 116 482 50 483 52 483 54 483 50 484 54 484 56 484 50 485 56 485 58 485 16 486 12 486 14 486 46 487 48 487 50 487 20 488 16 488 18 488 20 489 12 489 16 489 44 490 58 490 116 490 44 491 50 491 58 491 44 492 46 492 50 492 22 493 12 493 20 493 42 494 44 494 116 494 26 495 22 495 24 495 26 496 12 496 22 496 36 497 116 497 12 497 36 498 26 498 28 498 36 499 38 499 40 499 36 500 40 500 42 500 36 501 42 501 116 501 36 502 12 502 26 502 32 503 28 503 30 503 32 504 34 504 36 504 32 505 36 505 28 505 257 506 256 506 258 506 258 507 256 507 259 507 260 508 258 508 259 508 260 509 259 509 261 509 260 510 261 510 262 510 262 511 261 511 263 511 262 512 263 512 264 512 265 513 262 513 264 513 116 514 257 514 258 514 260 515 255 515 12 515 260 516 12 516 116 516 265 517 260 517 262 517 265 518 255 518 260 518 258 519 260 519 116 519 265 520 254 520 255 520 264 521 254 521 265 521 141 522 259 522 256 522 261 523 264 523 263 523 241 524 261 524 141 524 254 525 264 525 261 525 254 526 261 526 241 526 261 527 259 527 141 527</p>
        </triangles>
      </mesh>
    </geometry>
  </library_geometries>
  <library_materials>
    <material id="mat_base_link_body_shape003" name="base_link_body_shape003">
      <instance_effect url="#effect_base_link_body_shape003"/>
    </material>
  </library_materials>
  <library_visual_scenes>
    <visual_scene id="myscene">
      <node id="node0" name="node0">
        <instance_geometry url="#geometry0">
          <bind_material>
            <technique_common>
              <instance_material symbol="ref_base_link_body_shape003" target="#mat_base_link_body_shape003"/>
            </technique_common>
          </bind_material>
        </instance_geometry>
      </node>
    </visual_scene>
  </library_visual_scenes>
  <scene>
    <instance_visual_scene url="#myscene"/>
  </scene>
</COLLADA>
